<?xml version="1.0" encoding="UTF-8"?>
<svg width="28px" height="28px" viewBox="0 0 28 28" version="1.1" xmlns="http://www.w3.org/2000/svg" xmlns:xlink="http://www.w3.org/1999/xlink">
    <!-- Generator: Sketch 50 (54983) - http://www.bohemiancoding.com/sketch -->
    <title>icon/alert</title>
    <desc>Created with Sketch.</desc>
    <defs></defs>
    <g id="icon/alert" stroke="none" stroke-width="1" fill="none" fill-rule="evenodd">
        <g id="Group-9" transform="translate(3.000000, 1.000000)" fill-rule="nonzero">
            <path d="M11.5,26.259754 L11.5000363,26.259754 C13.1403366,26.259754 14.4700626,24.9415908 14.4700626,23.315554 L8.52997368,23.315554 C8.52997368,24.9415908 9.85969976,26.259754 11.5,26.259754 Z" id="Shape" fill="#999999"></path>
            <path d="M22.7049463,21.624738 L20.0615382,18.705192 L20.0615382,12.267534 C20.0615382,12.267534 20.6733018,4.594134 13.6845884,3.28332 L13.6845884,2.584884 C13.6825825,1.39023988 12.7050737,0.422842701 11.4999486,0.422842701 C10.2948234,0.422842701 9.31731461,1.39023988 9.31530868,2.584884 L9.31530868,3.2838 C2.33790158,4.596228 2.93847395,12.26754 2.93847395,12.26754 L2.93847395,18.705192 L0.295138421,21.624696 C0.0544534801,21.8632938 -0.017553985,22.2221171 0.112689858,22.5338628 C0.242933701,22.8456085 0.549782529,23.0488906 0.890166579,23.048928 L22.1096942,23.048928 C22.4500858,23.0489307 22.7569673,22.8456843 22.8872587,22.53395 C23.0175501,22.2222158 22.9455969,21.8633746 22.7049463,21.624732 L22.7049463,21.624738 Z" id="Shape" stroke="#999999" stroke-linecap="round" stroke-linejoin="round"></path>
        </g>
    </g>
</svg>